<svg xmlns="http://www.w3.org/2000/svg" viewBox="0 0 64 64">
  <rect width="64" height="64" rx="13" fill="#16130f"/>
  <defs>
    <linearGradient id="f" x1="0" y1="0" x2="0" y2="1">
      <stop offset="0" stop-color="#ffc845"/>
      <stop offset="0.55" stop-color="#f2a83b"/>
      <stop offset="1" stop-color="#e2641e"/>
    </linearGradient>
  </defs>
  <path fill="url(#f)" d="M34 10c2 7-3 10-3 16 0 4 3 6 3 6s-5 0-8-5c-3 6 1 9 1 13 0 7-6 11-6 11 9 4 21 1 24-8 3-8-2-14-5-19-2-4-3-8-3-14-2 2-3 5-3 8-2-5-1-10 0-14 1 2 3 4 6 6-1-3-2-6-3-10z"/>
</svg>
